<svg width="236" height="236" viewBox="0 0 236 236" fill="none" xmlns="http://www.w3.org/2000/svg">
<path d="M118 0C52.935 0 0 52.935 0 118C0 183.065 52.935 236 118 236C183.065 236 236 183.065 236 118C236 52.935 183.065 0 118 0ZM118 213.161C65.5283 213.161 22.8385 170.472 22.8385 118C22.8385 65.5278 65.5283 22.8385 118 22.8385C170.472 22.8385 213.161 65.5283 213.161 118C213.161 170.472 170.472 213.161 118 213.161Z" fill="black"/>
<path d="M123.918 129.253C121.251 128.195 119.5 125.616 119.5 122.747V51.266C119.5 48.3577 117.142 46 114.234 46V46C111.326 46 108.968 48.3577 108.968 51.266V132.162C108.968 135.089 110.79 137.708 113.534 138.725L173.579 160.99C176.543 162.089 179.829 160.514 180.828 157.516V157.516C181.766 154.701 180.343 151.644 177.586 150.55L123.918 129.253Z" fill="black"/>
</svg>
