<svg width="25" height="29" viewBox="0 0 25 29" fill="none" xmlns="http://www.w3.org/2000/svg">
    <path fill-rule="evenodd" clip-rule="evenodd" d="M21.8125 20.1034H20.8333V11.8509C20.8333 6.64204 17.1024 2.41943 12.5 2.41943C7.89763 2.41943 4.16667 6.64204 4.16667 11.8509V20.1034H3.23959C2.66429 20.1034 2.19792 20.6312 2.19792 21.2823C2.19792 21.9334 2.66429 22.4613 3.23959 22.4613H9.37501C9.37501 24.4146 10.7741 25.998 12.5 25.998C14.2259 25.998 15.625 24.4146 15.625 22.4613H21.8125C22.3878 22.4613 22.8542 21.9334 22.8542 21.2823C22.8542 20.6312 22.3878 20.1034 21.8125 20.1034ZM12.5 23.6402C11.9247 23.6402 11.4583 23.1124 11.4583 22.4613H13.5417C13.5417 23.1124 13.0753 23.6402 12.5 23.6402ZM6.25 20.1034H14.5833H18.75V11.8509C18.75 7.94425 15.9518 4.77729 12.5 4.77729C9.04822 4.77729 6.25 7.94425 6.25 11.8509V20.1034Z" fill="#4D4D4D"/>
</svg>
